<?xml version="1.0" encoding="UTF-8"?>
<!DOCTYPE svg PUBLIC "-//W3C//DTD SVG 1.1//EN" "http://www.w3.org/Graphics/SVG/1.1/DTD/svg11.dtd">
<svg version="1.2" width="22.85mm" height="26.96mm" viewBox="3488 10968 2285 2696" preserveAspectRatio="xMidYMid" fill-rule="evenodd" stroke-width="28.222" stroke-linejoin="round" xmlns="http://www.w3.org/2000/svg" xmlns:ooo="http://xml.openoffice.org/svg/export" xmlns:xlink="http://www.w3.org/1999/xlink" xmlns:presentation="http://sun.com/xmlns/staroffice/presentation" xmlns:smil="http://www.w3.org/2001/SMIL20/" xmlns:anim="urn:oasis:names:tc:opendocument:xmlns:animation:1.0" xmlns:svg="urn:oasis:names:tc:opendocument:xmlns:svg-compatible:1.0" xml:space="preserve">
 <defs class="EmbeddedBulletChars">
  <g id="bullet-char-template-57356" transform="scale(0.00048828125,-0.00048828125)">
   <path d="M 580,1141 L 1163,571 580,0 -4,571 580,1141 Z"/>
  </g>
  <g id="bullet-char-template-57354" transform="scale(0.00048828125,-0.00048828125)">
   <path d="M 8,1128 L 1137,1128 1137,0 8,0 8,1128 Z"/>
  </g>
  <g id="bullet-char-template-10146" transform="scale(0.00048828125,-0.00048828125)">
   <path d="M 174,0 L 602,739 174,1481 1456,739 174,0 Z M 1358,739 L 309,1346 659,739 1358,739 Z"/>
  </g>
  <g id="bullet-char-template-10132" transform="scale(0.00048828125,-0.00048828125)">
   <path d="M 2015,739 L 1276,0 717,0 1260,543 174,543 174,936 1260,936 717,1481 1274,1481 2015,739 Z"/>
  </g>
  <g id="bullet-char-template-10007" transform="scale(0.00048828125,-0.00048828125)">
   <path d="M 0,-2 C -7,14 -16,27 -25,37 L 356,567 C 262,823 215,952 215,954 215,979 228,992 255,992 264,992 276,990 289,987 310,991 331,999 354,1012 L 381,999 492,748 772,1049 836,1024 860,1049 C 881,1039 901,1025 922,1006 886,937 835,863 770,784 769,783 710,716 594,584 L 774,223 C 774,196 753,168 711,139 L 727,119 C 717,90 699,76 672,76 641,76 570,178 457,381 L 164,-76 C 142,-110 111,-127 72,-127 30,-127 9,-110 8,-76 1,-67 -2,-52 -2,-32 -2,-23 -1,-13 0,-2 Z"/>
  </g>
  <g id="bullet-char-template-10004" transform="scale(0.00048828125,-0.00048828125)">
   <path d="M 285,-33 C 182,-33 111,30 74,156 52,228 41,333 41,471 41,549 55,616 82,672 116,743 169,778 240,778 293,778 328,747 346,684 L 369,508 C 377,444 397,411 428,410 L 1163,1116 C 1174,1127 1196,1133 1229,1133 1271,1133 1292,1118 1292,1087 L 1292,965 C 1292,929 1282,901 1262,881 L 442,47 C 390,-6 338,-33 285,-33 Z"/>
  </g>
  <g id="bullet-char-template-9679" transform="scale(0.00048828125,-0.00048828125)">
   <path d="M 813,0 C 632,0 489,54 383,161 276,268 223,411 223,592 223,773 276,916 383,1023 489,1130 632,1184 813,1184 992,1184 1136,1130 1245,1023 1353,916 1407,772 1407,592 1407,412 1353,268 1245,161 1136,54 992,0 813,0 Z"/>
  </g>
  <g id="bullet-char-template-8226" transform="scale(0.00048828125,-0.00048828125)">
   <path d="M 346,457 C 273,457 209,483 155,535 101,586 74,649 74,723 74,796 101,859 155,911 209,963 273,989 346,989 419,989 480,963 531,910 582,859 608,796 608,723 608,648 583,586 532,535 482,483 420,457 346,457 Z"/>
  </g>
  <g id="bullet-char-template-8211" transform="scale(0.00048828125,-0.00048828125)">
   <path d="M -4,459 L 1135,459 1135,606 -4,606 -4,459 Z"/>
  </g>
  <g id="bullet-char-template-61548" transform="scale(0.00048828125,-0.00048828125)">
   <path d="M 173,740 C 173,903 231,1043 346,1159 462,1274 601,1332 765,1332 928,1332 1067,1274 1183,1159 1299,1043 1357,903 1357,740 1357,577 1299,437 1183,322 1067,206 928,148 765,148 601,148 462,206 346,322 231,437 173,577 173,740 Z"/>
  </g>
 </defs>
 <g class="Page">
  <g class="Group">
   <g class="com.sun.star.drawing.ClosedBezierShape">
    <g id="id3">
     <rect class="BoundingBox" stroke="none" fill="none" x="3543" y="12663" width="928" height="950"/>
     <path fill="rgb(53,82,105)" stroke="none" d="M 3543,13612 C 3661,13452 3778,13292 3896,13133 3779,12976 3662,12820 3545,12664 3617,12664 3689,12664 3760,12664 3848,12781 3935,12897 4022,13014 4102,12897 4182,12781 4263,12664 4319,12664 4376,12664 4433,12664 4325,12820 4218,12976 4111,13132 4230,13292 4350,13452 4470,13612 4398,13612 4326,13612 4255,13612 4164,13491 4074,13370 3983,13250 3894,13370 3806,13491 3717,13612 3659,13612 3601,13612 3543,13612 Z"/>
    </g>
   </g>
   <g class="com.sun.star.drawing.ClosedBezierShape">
    <g id="id4">
     <rect class="BoundingBox" stroke="none" fill="none" x="3488" y="10968" width="2285" height="2696"/>
     <g>
      <defs>
       <linearGradient id="gradient1" x1="3796" y1="10871" x2="5464" y2="13761" gradientUnits="userSpaceOnUse">
        <stop offset="0" style="stop-color:rgb(255,255,255)"/>
        <stop offset="1" style="stop-color:rgb(238,238,238)"/>
       </linearGradient>
      </defs>
      <path style="fill:url(#gradient1)" d="M 5720,11020 L 5720,13594 5720,13596 5720,13597 5720,13598 5719,13599 5719,13600 5719,13601 5718,13602 5718,13603 5717,13604 5716,13605 5716,13606 5715,13607 5714,13607 5713,13608 5712,13609 5712,13609 5711,13610 5709,13610 5708,13611 5707,13611 5706,13611 5705,13612 5704,13612 5703,13612 4845,13612 4843,13612 4842,13612 4841,13611 4840,13611 4839,13611 4838,13610 4837,13610 4837,13610 4836,13609 4835,13609 4835,13609 4834,13608 4834,13608 4834,13608 4833,13607 4833,13607 3545,12411 3545,12411 3544,12410 3543,12409 3543,12409 3543,12408 3542,12408 3542,12407 3541,12406 3541,12405 3541,12404 3540,12402 3540,12401 3540,12400 3540,12399 3540,11020 5720,11020 Z"/>
     </g>
     <path fill="none" stroke="rgb(204,204,204)" stroke-width="102" stroke-linejoin="round" d="M 5720,11020 L 5720,13594 C 5720,13597 5719,13601 5718,13603 5716,13606 5714,13608 5712,13609 5709,13611 5706,13612 5703,13612 L 4845,13612 C 4842,13612 4838,13611 4836,13609 4835,13609 4834,13608 4833,13607 L 3545,12411 C 3544,12410 3543,12409 3542,12408 3541,12405 3540,12402 3540,12399 L 3540,11020 5720,11020 Z"/>
    </g>
   </g>
   <g class="com.sun.star.drawing.ClosedBezierShape">
    <g id="id5">
     <rect class="BoundingBox" stroke="none" fill="none" x="3771" y="11448" width="1719" height="201"/>
     <path fill="rgb(204,204,204)" stroke="none" d="M 3772,11648 C 3772,11581 3772,11515 3772,11449 4344,11449 4916,11449 5488,11449 5488,11515 5488,11581 5488,11648 4916,11648 4344,11648 3772,11648 Z"/>
    </g>
   </g>
   <g class="com.sun.star.drawing.ClosedBezierShape">
    <g id="id6">
     <rect class="BoundingBox" stroke="none" fill="none" x="3771" y="11847" width="1719" height="201"/>
     <path fill="rgb(204,204,204)" stroke="none" d="M 3772,12047 C 3772,11980 3772,11914 3772,11847 4344,11847 4916,11847 5488,11847 5488,11914 5488,11980 5488,12047 4916,12047 4344,12047 3772,12047 Z"/>
    </g>
   </g>
   <g class="com.sun.star.drawing.ClosedBezierShape">
    <g id="id7">
     <rect class="BoundingBox" stroke="none" fill="none" x="3771" y="12245" width="1719" height="201"/>
     <path fill="rgb(204,204,204)" stroke="none" d="M 3772,12445 C 3772,12378 3772,12312 3772,12246 4344,12246 4916,12246 5488,12246 5488,12312 5488,12378 5488,12445 4916,12445 4344,12445 3772,12445 Z"/>
    </g>
   </g>
   <g class="com.sun.star.drawing.ClosedBezierShape">
    <g id="id8">
     <rect class="BoundingBox" stroke="none" fill="none" x="4200" y="12643" width="1290" height="202"/>
     <path fill="rgb(204,204,204)" stroke="none" d="M 4201,12644 C 4262,12710 4323,12777 4385,12843 4753,12843 5120,12843 5488,12843 5488,12777 5488,12710 5488,12644 5059,12644 4630,12644 4201,12644 Z"/>
    </g>
   </g>
   <g class="com.sun.star.drawing.ClosedBezierShape">
    <g id="id9">
     <rect class="BoundingBox" stroke="none" fill="none" x="3505" y="12364" width="1392" height="1300"/>
     <g>
      <defs>
       <linearGradient id="gradient2" x1="3459" y1="13443" x2="4943" y2="12586" gradientUnits="userSpaceOnUse">
        <stop offset="0" style="stop-color:rgb(178,178,178)"/>
        <stop offset="1" style="stop-color:rgb(238,238,238)"/>
       </linearGradient>
      </defs>
      <path style="fill:url(#gradient2)" d="M 4845,13612 L 3557,12416 4845,12416 4845,13612 Z"/>
     </g>
     <path fill="none" stroke="rgb(204,204,204)" stroke-width="102" stroke-linejoin="round" d="M 4845,13612 L 3557,12416 4845,12416 4845,13612 Z"/>
    </g>
   </g>
  </g>
 </g>
</svg>